<svg xmlns="http://www.w3.org/2000/svg" width="196" height="146" viewBox="0 0 196 146"><path fill-rule="evenodd" clip-rule="evenodd" fill="#3E4B5B" d="M164.387 0H56.903v63.754l14.241-14.297a6.42 6.42 0 0 1 9.107 0 6.484 6.484 0 0 1 0 9.144L55.207 83.746a6.447 6.447 0 0 1-1.585 1.166 6.261 6.261 0 0 1-3.041.783 6.249 6.249 0 0 1-2.399-.494 6.965 6.965 0 0 1-.434-.191c-.059-.03-.121-.052-.179-.084a6.405 6.405 0 0 1-1.615-1.18L20.909 58.601a6.484 6.484 0 0 1 0-9.144 6.42 6.42 0 0 1 9.107 0l14.241 14.297V0H31.613C14.153 0 0 14.21 0 31.739v82.522C0 131.789 14.153 146 31.613 146h132.774C181.846 146 196 131.789 196 114.261V31.739C196 14.21 181.846 0 164.387 0zm-61.645 38.087h56.902c2.619 0 4.742 2.131 4.742 4.76 0 2.63-2.123 4.761-4.742 4.761h-56.902c-2.619 0-4.742-2.131-4.742-4.761 0-2.628 2.123-4.76 4.742-4.76zm56.903 66.651h-56.902c-2.619 0-4.742-2.131-4.742-4.76 0-2.63 2.123-4.761 4.742-4.761h56.902c2.619 0 4.742 2.131 4.742 4.761 0 2.629-2.123 4.76-4.742 4.76zm9.484-19.043h-56.903c-2.618 0-4.741-2.131-4.741-4.761s2.123-4.761 4.741-4.761h56.903c2.619 0 4.742 2.131 4.742 4.761s-2.123 4.761-4.742 4.761zm0-19.043h-56.903c-2.618 0-4.741-2.131-4.741-4.761 0-2.628 2.123-4.76 4.741-4.76h56.903c2.619 0 4.742 2.131 4.742 4.76 0 2.63-2.123 4.761-4.742 4.761z"/></svg>