<svg xmlns="http://www.w3.org/2000/svg" width="45" height="52" viewBox="0 0 45 52"><path fill="#1F6D84" d="M44.998 14.802c.084-7.632-3.725-7.415-10.569-7.388.026-2.565.282-5.61-1.076-6.711C32.242-.2 29.904.024 27.974.024H16.711c-2.271 0-4.263-.115-5.379 1.086-1.143 1.23-.977 3.739-.95 6.236C3.438 7.272-.133 7.238.004 14.734l3.48.068v24.672c0 4.625-.318 8.708 2.089 10.71 3.168 2.634 14.097 1.627 19.87 1.627 4.68 0 11.057.763 13.795-1.423 2.436-1.945 2.09-5.985 2.09-10.575v-25.01h3.67zm-34.362 32.33c-1.866-.479-1.203-5.35-1.203-7.793V14.666h3.67v25.146c0 2.772.9 8.186-2.467 7.32zm12.024 0c-2.869.271-2.09-4.722-2.088-7.523V14.666h3.732v24.74c0 2.756.8 7.496-1.644 7.727zm8.353-39.651H13.8V3.753h17.213v3.728zm3.038 39.516c-2.979.411-2.153-4.68-2.153-7.455V14.666h3.735V39.27c0 2.77.803 7.399-1.582 7.727z"/></svg>