<svg xmlns="http://www.w3.org/2000/svg" width="45" height="42" viewBox="0 0 45 42"><path d="M44.998 11.955c.084-6.164-3.725-5.989-10.569-5.966.026-2.073.282-4.533-1.076-5.421C32.242-.161 29.904.02 27.974.02H16.711c-2.271 0-4.263-.094-5.379.877-1.143.993-.977 3.02-.95 5.036C3.438 5.873-.133 5.846.004 11.901l3.48.054v19.928c0 3.735-.318 7.033 2.089 8.65 3.168 2.128 14.097 1.313 19.87 1.313 4.68.001 11.057.618 13.795-1.149 2.436-1.57 2.09-4.833 2.09-8.54V11.955h3.67zM10.636 38.068c-1.866-.386-1.203-4.322-1.203-6.295V11.846h3.67v20.31c0 2.239.9 6.611-2.467 5.912zm12.024 0c-2.869.22-2.09-3.814-2.088-6.076V11.846h3.732v19.982c0 2.226.8 6.055-1.644 6.24zm8.353-32.026H13.8v-3.01h17.213v3.01zM34.05 37.96c-2.979.332-2.153-3.78-2.153-6.022v-20.09h3.735V31.72c0 2.237.803 5.975-1.582 6.24z" fill="#fff"/></svg>