<svg xmlns="http://www.w3.org/2000/svg" xmlns:xlink="http://www.w3.org/1999/xlink" width="200" height="200" viewBox="0 0 200 200"><image overflow="visible" width="200" height="200" xlink:href="9D45B59D.jpg"/><path fill-rule="evenodd" clip-rule="evenodd" fill="#FF3316" d="M152.94 0H47.059C21.069 0 0 21.069 0 47.059V152.94C0 178.931 21.069 200 47.059 200H152.94c25.99 0 47.06-21.069 47.06-47.06V47.059C200 21.069 178.931 0 152.94 0z"/><path fill-rule="evenodd" clip-rule="evenodd" fill="#FFF" d="M152.146 140.177V56.544c0-10.214-7.559-18.64-17.383-20.049v-.23h-17.378V18.889l-28.97 26.069 28.97 26.069V53.646h17.378v86.528c-6.845 3.456-11.588 10.842-11.588 19.422 0 11.885 9.08 21.521 20.279 21.521 11.2 0 20.279-9.636 20.279-21.521.001-8.579-4.741-15.965-11.587-19.419zm-8.691 30.179c-5.6 0-10.139-4.817-10.139-10.76s4.539-10.761 10.139-10.761c5.601 0 10.141 4.817 10.141 10.761 0 5.943-4.54 10.76-10.141 10.76zM82.617 51.991c0-11.886-9.079-21.521-20.279-21.521s-20.279 9.635-20.279 21.521c0 8.58 4.743 15.965 11.588 19.421v68.761c-6.845 3.457-11.588 10.843-11.588 19.423 0 11.885 9.079 21.521 20.279 21.521s20.279-9.636 20.279-21.521c0-8.58-4.743-15.966-11.588-19.423v-68.76c6.845-3.457 11.588-10.842 11.588-19.422zM72.478 159.597c0 5.942-4.54 10.76-10.14 10.76-5.6 0-10.14-4.817-10.14-10.76s4.54-10.761 10.14-10.761c5.6 0 10.14 4.817 10.14 10.761zm-10.14-96.845c-5.6 0-10.14-4.817-10.14-10.761 0-5.942 4.54-10.761 10.14-10.761 5.6 0 10.14 4.818 10.14 10.761 0 5.944-4.54 10.761-10.14 10.761z"/></svg>