<svg xmlns="http://www.w3.org/2000/svg" width="45" height="52" viewBox="0 0 45 52"><path fill="#11CD6E" d="M45.001 39L22.5 52 0 39V13L22.5 0l22.501 13z"/><path fill="#006C37" d="M19.952 20.154a4.98 4.98 0 0 0 1.227-.159l-1.722-1.415a2.894 2.894 0 0 1-1.052-1.96 2.905 2.905 0 0 1 .643-2.133 2.902 2.902 0 0 1 4.088-.41l1.83 1.501c.016-.157.025-.315.025-.477 0-2.788-2.255-5.053-5.038-5.053-2.783 0-5.039 2.264-5.039 5.053a5.044 5.044 0 0 0 5.038 5.053zm11.432-2.204c-.99 0-1.928.23-2.768.63a6.417 6.417 0 0 0-1.459.952l-5.074-4.166a1.225 1.225 0 0 0-.788-.283 1.247 1.247 0 0 0-.787 2.21l5.112 4.198a6.436 6.436 0 0 0-.588 1.668 6.564 6.564 0 0 0-.113.965l3.068-1.702a3.726 3.726 0 0 1 5.076 1.46 3.754 3.754 0 0 1-1.459 5.088l-2.681 1.488c.76.31 1.59.484 2.46.484 3.58 0 6.48-2.908 6.48-6.497.001-3.586-2.9-6.495-6.48-6.495zm.226 6.738a2.07 2.07 0 0 0-2.816-.814l-6.825 3.787a8.536 8.536 0 0 0-1.301-1.176 8.46 8.46 0 0 0-5.014-1.645c-4.706 0-8.52 3.823-8.52 8.544s3.815 8.542 8.52 8.542c4.71 0 8.524-3.824 8.524-8.542 0-.098-.011-.19-.015-.283a8.61 8.61 0 0 0-.242-1.768l6.88-3.823a2.078 2.078 0 0 0 .81-2.822zM15.666 40.502c-3.92 0-7.098-3.187-7.098-7.117s3.178-7.113 7.098-7.113c3.919 0 7.098 3.185 7.098 7.113 0 3.93-3.178 7.117-7.098 7.117z"/><path fill="#006C37" d="M17.996 36.187a1 1 0 0 1-1 1H13.31a1 1 0 0 1-1-1v-2.375a1 1 0 0 1 1-1h3.687a1 1 0 0 1 1 1v2.375z"/><path fill="#006C37" d="M18.758 30.977h-4.184c-.536 0-.966.38-1.084.88h4.616c.488 0 .886.476.886 1.063v2.977c.512-.11.904-.544.904-1.087v-2.697a1.14 1.14 0 0 0-1.138-1.136z"/></svg>