<svg xmlns="http://www.w3.org/2000/svg" width="45" height="52" viewBox="0 0 45 52"><path fill="#EB4F38" d="M45.001 39L22.5 52 0 39V13L22.5 0l22.501 13z"/><path fill="#871302" d="M19.952 20.152a4.98 4.98 0 0 0 1.227-.158l-1.722-1.415a2.894 2.894 0 0 1-1.052-1.961 2.905 2.905 0 0 1 .643-2.133 2.9 2.9 0 0 1 4.088-.41l1.83 1.502a4.72 4.72 0 0 0 .025-.478c0-2.787-2.255-5.053-5.037-5.053a5.047 5.047 0 0 0-5.04 5.053 5.043 5.043 0 0 0 5.038 5.053zm11.432-2.203c-.99 0-1.928.23-2.768.63a6.4 6.4 0 0 0-1.459.951l-5.074-4.166a1.225 1.225 0 0 0-.788-.282 1.247 1.247 0 0 0-.787 2.21l5.112 4.197a6.466 6.466 0 0 0-.589 1.67 6.67 6.67 0 0 0-.112.964l3.068-1.702a3.724 3.724 0 0 1 5.076 1.46 3.755 3.755 0 0 1-1.459 5.088l-2.681 1.488c.76.31 1.59.483 2.46.483 3.58 0 6.48-2.908 6.48-6.496.001-3.586-2.9-6.495-6.48-6.495zm.226 6.738a2.07 2.07 0 0 0-2.816-.814l-6.825 3.786a8.554 8.554 0 0 0-1.302-1.175 8.46 8.46 0 0 0-5.013-1.646c-4.706 0-8.52 3.823-8.52 8.544s3.815 8.542 8.52 8.542c4.71 0 8.524-3.824 8.524-8.542 0-.097-.012-.189-.016-.283a8.67 8.67 0 0 0-.241-1.767l6.88-3.823a2.078 2.078 0 0 0 .81-2.822zM15.666 40.5c-3.92 0-7.098-3.187-7.098-7.117s3.178-7.112 7.098-7.112c3.919 0 7.098 3.185 7.098 7.112 0 3.93-3.178 7.117-7.098 7.117z"/><path fill="#871302" d="M17.996 36.187c0 .55-.448 1-1 1H13.31a1 1 0 0 1-1-1v-2.375a1 1 0 0 1 1-1h3.687a1 1 0 0 1 1 1v2.375z"/><path fill="#871302" d="M18.758 30.977h-4.184c-.536 0-.966.382-1.084.882h4.616c.488 0 .886.474.886 1.061v2.977c.512-.11.904-.544.904-1.087v-2.697a1.14 1.14 0 0 0-1.138-1.136z"/></svg>