<svg xmlns="http://www.w3.org/2000/svg" width="38" height="38" viewBox="0 0 38 38"><path fill="#7e1101" d="M34 22.091C34 23.799 32.699 25 31.037 25H6.975C5.314 25 4 23.799 4 22.091v-6.183C4 14.2 5.314 13 6.975 13h24.062C32.699 13 34 14.2 34 15.908v6.183z"/><path fill="#FFF" d="M31 20.999c0 .552-.334 1.001-.893 1.001H7.894C7.336 22 7 21.551 7 20.999v-3.998c0-.552.336-1.001.894-1.001h22.213c.559 0 .893.449.893 1.001v3.998z"/><path d="M12.33 9c-.562 0-.688.31-.284.691l2.583 2.432a1.091 1.091 0 0 0 1.475-.001l2.582-2.43c.405-.381.277-.692-.284-.692H12.33zm1.977 0h2.255C15.366-1 0 .11 0 .11v1.886C2 1.997 12.739 2 14.307 9zM34 30.891c0-.553.574-.664.945-.248l2.664 2.834c.371.416.438 1.096.068 1.512l-2.77 2.839c-.368.411-.91.302-.91-.25L34 30.891z" fill="#7e1101"/><path fill="#7e1101" d="M34 32.781v2.576C19 35.357 17.699 23 17.699 23h2.81c0 2 2.491 9.781 13.491 9.781z"/></svg>