<svg xmlns="http://www.w3.org/2000/svg" width="45" height="52" viewBox="0 0 44.999999 52.000001"><path fill="#7e1101" d="M22.5 0L45 13v26L22.5 52 0 39V13z"/><path fill="#eb4f38" d="M22.5 3.415l19.545 11.292v22.586L22.5 48.586 2.955 37.293V14.707z"/><path d="M31.902 24.645l-13.87-10.08a1.664 1.664 0 0 0-1.736-.134c-.56.283-.913.86-.913 1.487v20.16a1.672 1.672 0 0 0 1.67 1.668c.346 0 .69-.105.98-.318L31.902 27.35a1.67 1.67 0 0 0 .687-1.353 1.683 1.683 0 0 0-.687-1.352z" fill="#fff" fill-opacity=".941"/></svg>