<svg xmlns="http://www.w3.org/2000/svg" width="45" height="52" viewBox="0 0 44.999999 52.000001"><path fill="#00733b" d="M0 13L22.5 0 45 13v26L22.5 52 0 39z"/><path fill="#11cd6e" d="M2.955 14.707L22.5 3.415l19.545 11.292v22.586L22.5 48.586 2.955 37.293z"/><path d="M31.9 24.646l-13.87-10.08a1.664 1.664 0 0 0-1.737-.135c-.56.283-.913.86-.913 1.486v20.16a1.672 1.672 0 0 0 1.67 1.67c.346 0 .691-.107.981-.32L31.9 27.35a1.67 1.67 0 0 0 .687-1.352c0-.536-.258-1.036-.687-1.351z" fill="#fff" fill-opacity=".941"/></svg>