<svg xmlns="http://www.w3.org/2000/svg" width="45" height="52" viewBox="0 0 45 52"><path fill="#EB4F38" d="M45.004 39L22.503 52 .003 39V13l22.5-13 22.501 13z"/><path fill="#FFF" d="M19.955 20.155c.424 0 .834-.058 1.227-.157l-1.722-1.415a2.897 2.897 0 0 1-1.052-1.962 2.905 2.905 0 0 1 .643-2.132 2.885 2.885 0 0 1 2.247-1.069 2.9 2.9 0 0 1 1.84.66l1.83 1.5c.016-.157.026-.315.026-.477 0-2.788-2.256-5.053-5.038-5.053-2.783 0-5.039 2.264-5.039 5.053a5.044 5.044 0 0 0 5.038 5.052zm11.432-2.203c-.99 0-1.928.23-2.768.63a6.43 6.43 0 0 0-1.459.95l-5.074-4.165a1.238 1.238 0 0 0-1.749.173c-.435.533-.36 1.32.174 1.755l5.112 4.197a6.448 6.448 0 0 0-.588 1.669 6.555 6.555 0 0 0-.114.965l3.069-1.702a3.735 3.735 0 0 1 1.809-.47c1.357 0 2.61.74 3.267 1.93a3.754 3.754 0 0 1-1.459 5.088l-2.682 1.488c.76.31 1.59.486 2.461.486 3.58 0 6.48-2.908 6.48-6.499.001-3.587-2.9-6.495-6.48-6.495zm.226 6.737a2.07 2.07 0 0 0-2.816-.813l-6.824 3.789a8.487 8.487 0 0 0-1.302-1.178 8.46 8.46 0 0 0-5.014-1.645c-4.706 0-8.52 3.825-8.52 8.544 0 4.721 3.815 8.544 8.52 8.544 4.71 0 8.525-3.824 8.525-8.544 0-.097-.012-.189-.016-.283a8.67 8.67 0 0 0-.242-1.767l6.88-3.822a2.08 2.08 0 0 0 .81-2.825zM15.67 40.506c-3.92 0-7.098-3.187-7.098-7.117s3.178-7.115 7.098-7.115c3.919 0 7.098 3.185 7.098 7.115s-3.178 7.117-7.098 7.117zm0-2.68l-3.8-3.802h2.534v-5.07h2.532v5.07h2.535l-3.8 3.803z"/></svg>