<svg xmlns="http://www.w3.org/2000/svg" width="45" height="52" viewBox="0 0 45 52"><path fill="#11CD6E" d="M45.004 39L22.503 52 .003 39V13l22.5-13 22.501 13z"/><path fill="#FFF" d="M19.955 20.154a4.98 4.98 0 0 0 1.227-.158l-1.722-1.415a2.906 2.906 0 0 1-.41-4.094 2.885 2.885 0 0 1 2.248-1.068c.67 0 1.325.234 1.84.66l1.83 1.5a4.72 4.72 0 0 0 .026-.478c0-2.787-2.256-5.052-5.038-5.052a5.046 5.046 0 0 0-5.039 5.052 5.044 5.044 0 0 0 5.038 5.053zm11.432-2.203c-.99 0-1.928.23-2.768.63a6.43 6.43 0 0 0-1.459.95l-5.074-4.165a1.238 1.238 0 0 0-1.749.173c-.435.533-.36 1.32.174 1.755l5.112 4.197a6.448 6.448 0 0 0-.588 1.668c-.065.314-.096.64-.114.966l3.069-1.702a3.73 3.73 0 0 1 1.809-.47c1.357 0 2.61.74 3.267 1.93a3.754 3.754 0 0 1-1.459 5.087l-2.682 1.489a6.5 6.5 0 0 0 2.461.485c3.58 0 6.48-2.908 6.48-6.498.001-3.587-2.9-6.495-6.48-6.495zm.226 6.737a2.07 2.07 0 0 0-2.816-.813l-6.824 3.788a8.525 8.525 0 0 0-1.302-1.177 8.462 8.462 0 0 0-5.014-1.646c-4.706 0-8.52 3.825-8.52 8.545s3.815 8.543 8.52 8.543c4.71 0 8.525-3.824 8.525-8.543 0-.097-.012-.19-.016-.283a8.68 8.68 0 0 0-.242-1.768l6.88-3.822a2.08 2.08 0 0 0 .81-2.824zM15.67 40.504c-3.92 0-7.098-3.187-7.098-7.117s3.178-7.114 7.098-7.114c3.919 0 7.098 3.185 7.098 7.114s-3.178 7.117-7.098 7.117zm0-2.68l-3.8-3.802h2.534v-5.07h2.532v5.07h2.535l-3.8 3.803z"/></svg>