<svg xmlns="http://www.w3.org/2000/svg" width="100" height="100" viewBox="0 0 100 100"><path fill="#87BC0C" d="M100 88c0 6.627-5.373 12-12 12H12c-6.627 0-12-5.373-12-12V12C0 5.373 5.373 0 12 0h76c6.627 0 12 5.373 12 12v76z"/><path fill="#FFF" d="M30.693 78.217V21.783h21.172c4.312 0 7.77.571 10.375 1.713 2.604 1.143 4.645 2.9 6.121 5.273 1.475 2.374 2.213 4.857 2.213 7.449 0 2.412-.654 4.684-1.963 6.813-1.31 2.131-3.285 3.85-5.929 5.158 3.413 1.001 6.037 2.708 7.872 5.12 1.834 2.412 2.752 5.261 2.752 8.546 0 2.644-.558 5.101-1.674 7.372-1.117 2.271-2.496 4.022-4.139 5.255-1.643 1.231-3.701 2.162-6.178 2.79-2.478.63-5.512.943-9.104.943H30.693zm7.468-32.721h12.202c3.312 0 5.685-.218 7.123-.654 1.898-.564 3.329-1.502 4.291-2.811.963-1.309 1.444-2.951 1.444-4.928 0-1.873-.45-3.522-1.348-4.946-.898-1.425-2.182-2.399-3.85-2.926-1.669-.525-4.53-.789-8.585-.789H38.161v17.054zm0 26.062h14.051c2.411 0 4.105-.09 5.081-.27 1.719-.309 3.156-.821 4.312-1.54 1.155-.718 2.104-1.765 2.849-3.138.744-1.372 1.117-2.957 1.117-4.754 0-2.104-.539-3.933-1.617-5.485s-2.573-2.644-4.484-3.272c-1.912-.629-4.665-.943-8.258-.943h-13.05v19.402z"/></svg>