<svg xmlns="http://www.w3.org/2000/svg" width="100" height="100" viewBox="0 0 100 100"><path fill="#E66676" d="M100 88c0 6.627-5.373 12-12 12H12c-6.627 0-12-5.373-12-12V12C0 5.373 5.373 0 12 0h76c6.627 0 12 5.373 12 12v76z"/><path fill="#FFF" d="M24.857 50c0-9.939 2.762-17.301 8.288-22.086 4.615-3.975 10.242-5.963 16.88-5.963 7.378 0 13.409 2.418 18.093 7.252 4.683 4.836 7.024 11.516 7.024 20.039 0 6.907-1.035 12.34-3.107 16.299s-5.088 7.033-9.047 9.224c-3.959 2.189-8.28 3.284-12.963 3.284-7.514 0-13.587-2.408-18.219-7.227-4.633-4.817-6.949-11.758-6.949-20.822zm9.35 0c0 6.874 1.499 12.021 4.498 15.439 2.998 3.42 6.772 5.13 11.32 5.13 4.515 0 8.271-1.719 11.271-5.155 2.998-3.437 4.497-8.675 4.497-15.717 0-6.638-1.508-11.666-4.522-15.086-3.017-3.42-6.765-5.13-11.245-5.13-4.548 0-8.322 1.702-11.32 5.104-3 3.405-4.499 8.542-4.499 15.415z"/></svg>