<svg xmlns="http://www.w3.org/2000/svg" width="200" height="160" viewBox="0 0 200 160"><path fill-rule="evenodd" clip-rule="evenodd" d="M152.533 56.25l-65.971 65.309 26.389 26.123 65.971-65.309-26.389-26.123zm41.986 11.426l-.015-.014a18.855 18.855 0 0 0-.155-26.765c-7.454-7.353-19.479-7.423-27.037-.24l-.092.09-.007-.006-7.767 7.657 27.306 26.935 7.767-7.657zM88.659.004c-5.917 0-10.712 4.748-10.712 10.604 0 5.858 4.796 10.606 10.712 10.606 5.917 0 10.713-4.748 10.713-10.606 0-5.856-4.796-10.604-10.713-10.604zM74.119 160l30.791-7.008-23.71-23.474L74.119 160zM117.226.004c-5.916 0-10.712 4.748-10.712 10.604 0 5.858 4.796 10.606 10.712 10.606 5.917 0 10.714-4.748 10.714-10.606-.001-5.856-4.797-10.604-10.714-10.604zm-52.95 45.212v-.003h-.003L42.847 24.004v21.209H0v28.282h42.847v21.2l21.425-21.2h.005v-.005l14.284-14.136-14.285-14.138zM145.794.004c-5.917 0-10.713 4.748-10.713 10.604 0 5.858 4.796 10.606 10.713 10.606s10.713-4.748 10.713-10.606c0-5.856-4.796-10.604-10.713-10.604z"/></svg>