<svg xmlns="http://www.w3.org/2000/svg" width="200" height="160" viewBox="0 0 200 160"><path fill-rule="evenodd" clip-rule="evenodd" d="M78.415 20.928L12.443 86.237l26.389 26.123 65.971-65.309-26.388-26.123zm41.984 11.426l-.015-.014a18.855 18.855 0 0 0-.155-26.765c-7.454-7.353-19.479-7.423-27.037-.24l-.092.09-.006-.006-7.767 7.657 27.306 26.935 7.766-7.657zm-38.24 106.439c-5.917 0-10.712 4.748-10.712 10.604 0 5.858 4.796 10.606 10.712 10.606 5.917 0 10.713-4.748 10.713-10.606 0-5.856-4.796-10.604-10.713-10.604zM0 124.679l30.792-7.008L7.081 94.196 0 124.679zm110.726 14.114c-5.916 0-10.712 4.748-10.712 10.604 0 5.858 4.796 10.606 10.712 10.606 5.917 0 10.714-4.748 10.714-10.606-.001-5.856-4.797-10.604-10.714-10.604zm74.99-63.63v-.003h-.003l-21.427-21.209V75.16h-42.847v28.282h42.847v21.2l21.425-21.2h.005v-.005L200 89.302l-14.284-14.139zm-46.422 63.63c-5.917 0-10.713 4.748-10.713 10.604 0 5.858 4.796 10.606 10.713 10.606s10.713-4.748 10.713-10.606c0-5.856-4.796-10.604-10.713-10.604z"/></svg>