<svg xmlns="http://www.w3.org/2000/svg" width="45" height="42" viewBox="0 0 45 42"><path d="M42.297 25.661l-13.07 4.797c-.323.12-.65.114-.975.14l-1.97-5.649 1.1-.405c.34 1.09 1.452 1.665 2.483 1.287l9.334-3.427c1.033-.379 1.592-1.567 1.252-2.657l-2.459-7.884c-.34-1.089-1.451-1.664-2.482-1.287l-9.334 3.426c-1.031.379-1.592 1.568-1.252 2.657l-1.358.497-1.911-5.488c.398-.398.875-.72 1.423-.924l13.068-4.796c2.063-.756 4.286.396 4.965 2.573l3.69 11.829c.68 2.176-.442 4.554-2.504 5.311zM23.213.361l1.633.867-3.622 5.916-1.634-.867L23.213.36zM15.72 26.582c-.68-.882-.56-2.18.27-2.898l2.534-2.197 2.57 3.1-2.637 2.286c-.829.72-2.054.59-2.737-.291zm14.166-7.352c.34 1.09-.221 2.28-1.252 2.658L25.604 23l-1.358-3.896 3.16-1.16c1.03-.379 2.143.198 2.48 1.286zm-13.628 1.555c-.68-.88-1.906-1.01-2.736-.29L6.01 27.01c-.83.72-.95 2.015-.268 2.896l4.935 6.378c.68.884 1.906 1.014 2.735.294l7.513-6.514c.83-.718.95-2.015.269-2.897l1.185-1.03 3.579 4.32a4.058 4.058 0 0 1-1.065 1.495L14.377 41.07c-1.657 1.44-4.109 1.18-5.47-.583l-7.403-9.571c-1.363-1.76-2.265-2.56-.607-3.998l11.66-10.915c.295-.256.636-.394.97-.544l3.712 4.479-.98.848zM4.72 12.658l8.093-1.655.375 2.021-8.097 1.657-.372-2.023zm8.276-11.56L14.66 0l1.1 7.528-1.669 1.098-1.097-7.527z" fill="#fff"/></svg>