<svg xmlns="http://www.w3.org/2000/svg" width="45" height="44" viewBox="0 0 45 44"><path fill="#1F6D84" d="M42.298 26.883l-13.072 5.025c-.322.126-.648.12-.974.148l-1.97-5.918 1.1-.425c.34 1.141 1.452 1.744 2.483 1.349l9.334-3.591c1.033-.397 1.592-1.642 1.252-2.784l-2.459-8.259c-.34-1.14-1.451-1.743-2.482-1.348l-9.334 3.59c-1.032.396-1.592 1.642-1.252 2.783l-1.358.52-1.911-5.749a3.939 3.939 0 0 1 1.423-.968l13.068-5.023c2.063-.792 4.285.414 4.965 2.694l3.69 12.393c.68 2.279-.44 4.77-2.503 5.563zM23.213.377l1.633.91-3.622 6.197-1.634-.908L23.213.377zM15.72 27.85c-.68-.924-.56-2.284.27-3.036l2.534-2.301 2.57 3.248-2.637 2.393c-.829.756-2.054.618-2.737-.304zm14.166-7.702c.34 1.141-.221 2.388-1.252 2.784l-3.031 1.166-1.358-4.082 3.16-1.215c1.03-.397 2.143.206 2.48 1.347zm-13.628 1.629c-.68-.922-1.906-1.059-2.736-.304L6.01 28.296c-.831.754-.95 2.111-.269 3.034l4.936 6.682c.68.925 1.906 1.061 2.735.307l7.513-6.823c.83-.753.95-2.111.269-3.035l1.185-1.08 3.579 4.525a4.254 4.254 0 0 1-1.065 1.567l-10.517 9.552c-1.657 1.509-4.11 1.237-5.47-.61L1.503 32.387C.14 30.544-.762 29.707.896 28.2l11.66-11.435c.296-.268.637-.412.97-.57l3.713 4.692-.98.889zM4.718 13.26l8.094-1.734.375 2.117L5.09 15.38l-.372-2.119zm8.277-12.11L14.66 0l1.1 7.887-1.669 1.15-1.097-7.886z"/></svg>