<svg xmlns="http://www.w3.org/2000/svg" width="200" height="200" viewBox="0 0 200 200"><path fill="#FF3316" d="M152.939 0H47.059C21.069 0 0 21.069 0 47.059v105.88C0 178.932 21.069 200 47.059 200h105.88C178.93 200 200 178.932 200 152.939V47.059C200 21.069 178.932 0 152.939 0zm2.518 139.025c4.537 4.539 4.537 11.896 0 16.434s-11.895 4.538-16.434 0L99.92 116.355l-39.099 39.099c-4.545 4.545-11.914 4.545-16.458 0-4.544-4.545-4.544-11.913 0-16.458l39.099-39.099-38.921-38.923c-4.538-4.537-4.538-11.894 0-16.432s11.895-4.538 16.432 0l38.923 38.923 39.101-39.101c4.545-4.545 11.913-4.545 16.458 0 4.544 4.544 4.544 11.913 0 16.458l-39.102 39.101 39.104 39.102z"/></svg>