<svg xmlns="http://www.w3.org/2000/svg" width="500" height="574" viewBox="0 0 500.00001 574.00001" id="svg4156"><defs id="defs4158"><style id="style3344">@font-face{font-family:ifont;src:url(http://at.alicdn.com/t/font_1442373896_4754455.eot?#iefix) format(&amp;quot;embedded-opentype&amp;quot;),url(http://at.alicdn.com/t/font_1442373896_4754455.woff) format(&amp;quot;woff&amp;quot;),url(http://at.alicdn.com/t/font_1442373896_4754455.ttf) format(&amp;quot;truetype&amp;quot;),url(http://at.alicdn.com/t/font_1442373896_4754455.svg#ifont) format(&amp;quot;svg&amp;quot;)}</style></defs><g id="layer1" transform="translate(0 -478.362)"><g id="layer1-5" transform="matrix(1.02427 0 0 1.02344 .151 1059.46)"><path transform="scale(-1 1) rotate(-80.711 -204.882 -149.487)" d="M202.024-253.135L100.568 8.306l-277.142 42.857-175.687-218.584 101.456-261.441L26.338-471.72z" id="path3336" fill="#84c1bc"/><g transform="matrix(1.99923 0 0 2.09462 44.006 -496.72)" class="transform-group" id="g3346"><g transform="scale(.19531)" id="g3348"><path d="M440.407 347.78c11.908 0 23.43-1.625 34.485-4.417l-48.389-39.714c-16.896-13.8-27.372-33.39-29.56-55.14-2.156-21.764 4.297-43.037 18.072-59.869 15.544-19.077 38.589-30.018 63.144-30.018 18.86 0 37.204 6.605 51.72 18.538l51.429 42.193c.419-4.426.676-8.89.676-13.42 0-78.344-63.402-141.883-141.577-141.883-78.206 0-141.608 63.539-141.608 141.882 0 78.333 63.402 141.848 141.608 141.848zm321.323-61.873c-27.87 0-54.197 6.444-77.788 17.67-14.902 7.08-28.708 16.042-41.05 26.711L500.3 213.3c-6.47-5.35-14.322-7.95-22.143-7.95-10.074.001-20.147 4.378-27.034 12.834-12.262 14.973-10.074 37.052 4.891 49.29L599.668 385.37c-7.483 14.62-13.147 30.285-16.48 46.86-1.785 8.802-2.703 17.902-3.17 27.098l86.221-47.841c15.544-8.61 33.101-13.203 50.835-13.203 38.153 0 73.33 20.807 91.836 54.278 28 50.706 9.591 114.793-41.002 142.856l-75.374 41.8c21.354 8.794 44.687 13.735 69.195 13.735 100.607 0 182.144-81.73 182.144-182.531 0-100.818-81.536-182.516-182.143-182.516zm6.356 189.264c-10.637-19.246-30.526-30.132-51.01-30.132-9.576 0-19.247 2.358-28.178 7.297L497.132 558.713c-11.04-12.238-23.285-23.325-36.642-33.068-39.554-28.918-88.151-46.2-140.869-46.2-132.26 0-239.496 107.454-239.496 240.002 0 132.541 107.237 239.995 239.496 239.995 132.307 0 239.56-107.454 239.56-239.995 0-2.703-.338-5.327-.435-7.996a238.623 238.623 0 0 0-6.822-49.629L745.332 554.54c28.161-15.619 38.347-51.142 22.754-79.368zm-448.143 444.28c-110.18 0-199.491-89.503-199.491-199.875 0-110.4 89.31-199.886 199.491-199.886 110.165 0 199.507 89.486 199.507 199.886 0 110.372-89.343 199.876-199.507 199.876zm-118.86-231.626h159.96v127.97h-159.96v-127.97zm31.992-63.983h191.954v159.952h-31.993V655.826H233.075v-31.984z" id="path3350" fill="#1f6c83"/></g></g></g></g></svg>