<svg xmlns="http://www.w3.org/2000/svg" width="196" height="146" viewBox="0 0 196 146"><path fill-rule="evenodd" clip-rule="evenodd" fill="#DDB600" d="M31.613 146h107.483V82.246l-14.241 14.297a6.421 6.421 0 0 1-9.107 0 6.482 6.482 0 0 1 0-9.144l25.045-25.146a6.433 6.433 0 0 1 1.586-1.166 6.26 6.26 0 0 1 3.04-.783c.854 0 1.657.187 2.399.494.146.058.29.123.434.191.059.03.121.052.179.084a6.4 6.4 0 0 1 1.614 1.18l25.046 25.146a6.484 6.484 0 0 1 0 9.144 6.421 6.421 0 0 1-9.107 0l-14.241-14.297V146h12.645c17.46 0 31.613-14.21 31.613-31.738V31.739C196 14.211 181.847 0 164.387 0H31.613C14.154 0 0 14.211 0 31.739v82.522C0 131.79 14.154 146 31.613 146zm61.645-38.088H36.355c-2.619 0-4.742-2.131-4.742-4.76 0-2.63 2.123-4.761 4.742-4.761h56.902c2.619 0 4.742 2.131 4.742 4.761.001 2.629-2.122 4.76-4.741 4.76zm-56.903-66.65h56.902c2.619 0 4.742 2.131 4.742 4.76 0 2.63-2.123 4.761-4.742 4.761H36.355c-2.619 0-4.742-2.131-4.742-4.761 0-2.629 2.123-4.76 4.742-4.76zm-9.484 19.043h56.903c2.618 0 4.741 2.131 4.741 4.761s-2.123 4.761-4.741 4.761H26.871c-2.619 0-4.742-2.131-4.742-4.761s2.123-4.761 4.742-4.761zm0 19.043h56.903c2.618 0 4.741 2.132 4.741 4.762 0 2.629-2.123 4.76-4.741 4.76H26.871c-2.619 0-4.742-2.131-4.742-4.76 0-2.631 2.123-4.762 4.742-4.762z"/></svg>